<svg id="Logo" xmlns="http://www.w3.org/2000/svg" width="767" height="330" viewBox="0 0 767 330">
  <defs>
    <style>
      .cls-1 {
        fill: #7a7b7e;
      }

      .cls-1, .cls-2 {
        fill-rule: evenodd;
      }

      .cls-2 {
        fill: #426d9d;
      }
    </style>
  </defs>
  <path id="music_notation_for_everyone" data-name="music notation for everyone" class="cls-1" d="M25.561,268.307l-5.414,25.3h3.187l3.5-16.332a22.9,22.9,0,0,1,3.256-7.481,26.5,26.5,0,0,1,5.843-6.574q3.341-2.652,6.117-2.653,2.912,0,4.1,1.831a9.713,9.713,0,0,1,1.182,5.256,35.953,35.953,0,0,1-.925,5.821L42.25,293.609h3.187l3.5-16.469a22.164,22.164,0,0,1,3.393-7.618,26.366,26.366,0,0,1,5.877-6.471,10.09,10.09,0,0,1,5.946-2.482q5.277,0,5.277,6.5a42.6,42.6,0,0,1-.925,6.4l-4.112,20.132H67.54l4.147-19.619a38.128,38.128,0,0,0,.96-6.95q0-9.348-7.848-9.347a12.187,12.187,0,0,0-7.334,2.79,28.746,28.746,0,0,0-6.922,8.029q0-5.718-1.851-8.269t-6-2.55q-7.231,0-13.982,10.819H28.576l1.679-9.963H27.1a87.656,87.656,0,0,1-1.542,9.758h0Zm52.383,14.208a19.994,19.994,0,0,0-.223,2.329q0,9.621,8.7,9.62,7.984,0,14.667-10.819h0.137l-1.679,9.964H102.7a87.313,87.313,0,0,1,1.542-9.758l5.414-25.3h-3.187l-3.495,16.331a21.221,21.221,0,0,1-3.41,7.516,26.754,26.754,0,0,1-6.168,6.625,10.927,10.927,0,0,1-6.357,2.567q-6.032,0-6.031-7.087a42.076,42.076,0,0,1,.925-5.82l4.112-20.132H82.9Q78.166,280.872,77.943,282.515Zm31.787,9.553a16.589,16.589,0,0,0,8.91,2.4q5.449,0,8.688-2.687a8.888,8.888,0,0,0,3.238-7.207,8.033,8.033,0,0,0-1.662-5.016,20.11,20.11,0,0,0-5.569-4.537,17.148,17.148,0,0,1-4.54-3.526,6.211,6.211,0,0,1-1.217-3.972,6.3,6.3,0,0,1,2.228-5.05,8.352,8.352,0,0,1,5.62-1.9,13.983,13.983,0,0,1,7.813,2.191l0.685-3.287a15.037,15.037,0,0,0-3.975-1.3,21.891,21.891,0,0,0-4.215-.479,11.775,11.775,0,0,0-8.207,2.927,9.447,9.447,0,0,0-3.239,7.31A8.166,8.166,0,0,0,115.865,273a20.538,20.538,0,0,0,5.585,4.554,18.832,18.832,0,0,1,4.592,3.629,5.782,5.782,0,0,1,1.234,3.732,5.9,5.9,0,0,1-2.193,5,10.092,10.092,0,0,1-6.237,1.677,13.4,13.4,0,0,1-4.421-.787,14.8,14.8,0,0,1-4.009-2.089Zm26.682-5.649a17.957,17.957,0,0,0-.292,3.218q0,4.656,4.352,4.656a7.856,7.856,0,0,0,3.359-.787l0.582-2.637a7.693,7.693,0,0,1-2.913.583,1.847,1.847,0,0,1-2.124-2.055,34.483,34.483,0,0,1,.822-5.957l5.278-24.891h-3.187Q136.7,284.809,136.412,286.419Zm11.771-37.491a2.571,2.571,0,0,0,.788-1.883,2.305,2.305,0,0,0-.805-1.849,2.8,2.8,0,0,0-1.868-.685,2.616,2.616,0,0,0-1.816.719,2.348,2.348,0,0,0-.788,1.815,2.565,2.565,0,0,0,.771,1.917,2.534,2.534,0,0,0,1.833.753A2.574,2.574,0,0,0,148.183,248.928Zm15.9,44.972a23.228,23.228,0,0,0,4.455-2.038l0.857-3.937a23.752,23.752,0,0,1-4.592,2.773,10.746,10.746,0,0,1-4.318.89,8.537,8.537,0,0,1-6.939-2.978q-2.486-2.979-2.485-8.183a25.055,25.055,0,0,1,1.988-10.066,17.1,17.1,0,0,1,5.534-7.19,12.74,12.74,0,0,1,7.694-2.6,10.4,10.4,0,0,1,7.676,3.013l0.822-3.493a13.551,13.551,0,0,0-3.906-1.866,16.106,16.106,0,0,0-4.284-.53,16.322,16.322,0,0,0-9.424,2.961,19.994,19.994,0,0,0-6.785,8.235,27.2,27.2,0,0,0-2.468,11.675q0,6.471,3.29,10.186a11.3,11.3,0,0,0,8.91,3.714A13.567,13.567,0,0,0,164.086,293.9Zm30.779-25.593-5.414,25.3h3.187l3.5-16.332a21.634,21.634,0,0,1,3.6-8.08,24.9,24.9,0,0,1,6.186-6.232,11.31,11.31,0,0,1,6.151-2.4q6.031,0,6.032,7.087a42.118,42.118,0,0,1-.926,5.821l-4.146,20.132h3.187q4.626-22.084,4.9-23.727a17.319,17.319,0,0,0,.274-2.774q0-4.827-2.107-7.121t-6.6-2.294q-7.985,0-14.667,10.819h-0.137l1.679-9.963h-3.153a87.348,87.348,0,0,1-1.542,9.758h0Zm52.16,23.127a20.1,20.1,0,0,0,6.648-8.405,28.742,28.742,0,0,0,2.4-11.846q0-6.231-3.187-9.861t-9.013-3.629a15.766,15.766,0,0,0-9.321,3.013,20.556,20.556,0,0,0-6.733,8.422,27.872,27.872,0,0,0-2.485,11.778q0,6.369,3.256,9.963t9.012,3.595A15.863,15.863,0,0,0,247.025,291.434ZM231.107,288.7q-2.484-2.892-2.484-8.063a25.689,25.689,0,0,1,1.987-10.22,17.367,17.367,0,0,1,5.449-7.241,12.138,12.138,0,0,1,7.437-2.6,8.607,8.607,0,0,1,6.853,2.79q2.433,2.792,2.433,8.166a25.787,25.787,0,0,1-1.987,10.254A17.356,17.356,0,0,1,245.38,289a12.137,12.137,0,0,1-7.47,2.585A8.5,8.5,0,0,1,231.107,288.7Zm30.005-5.392a22.087,22.087,0,0,0-.685,5.033q0,5.957,5.552,5.957a10.612,10.612,0,0,0,2.6-.462,14.005,14.005,0,0,0,2.947-1.147l0.686-3.013q-4.078,1.781-5.552,1.781a2.851,2.851,0,0,1-2.33-.839,3.847,3.847,0,0,1-.686-2.483,27.3,27.3,0,0,1,.651-4.69l4.7-22.015h9.253l0.72-2.876h-9.424l2.193-10.169-3.393,1.061-1.953,9.108h-6.306l-0.651,2.876h6.409Zm41.571,10.306a49.535,49.535,0,0,1,.514-6.078q0.514-3.885,1.028-6.488l4.558-22.083a54.949,54.949,0,0,0-10.692-1.267,19.493,19.493,0,0,0-10.743,3.133,21.419,21.419,0,0,0-7.659,8.713,27.518,27.518,0,0,0-2.776,12.429q0,5.957,2.519,9.227a8.525,8.525,0,0,0,7.179,3.269,11,11,0,0,0,7.539-3.1,33.61,33.61,0,0,0,6.614-8.988H300.9a87.018,87.018,0,0,0-1.473,11.231h3.255Zm0.343-22.153a35.207,35.207,0,0,1-3.89,9.878,28.3,28.3,0,0,1-5.945,7.533q-3.187,2.721-5.963,2.721-7.026,0-7.025-9.963a25.039,25.039,0,0,1,2.3-10.888,17.961,17.961,0,0,1,6.357-7.5,15.969,15.969,0,0,1,8.961-2.67,34.353,34.353,0,0,1,7.3.787ZM313.035,283.3a22.087,22.087,0,0,0-.685,5.033q0,5.957,5.551,5.957a10.61,10.61,0,0,0,2.6-.462,14.005,14.005,0,0,0,2.947-1.147l0.685-3.013q-4.079,1.781-5.551,1.781a2.851,2.851,0,0,1-2.33-.839,3.847,3.847,0,0,1-.686-2.483,27.3,27.3,0,0,1,.651-4.69l4.695-22.015h9.253l0.719-2.876h-9.424l2.194-10.169-3.393,1.061-1.953,9.108h-6.306l-0.651,2.876h6.408Zm16.161,3.116a17.957,17.957,0,0,0-.292,3.218q0,4.656,4.353,4.656a7.851,7.851,0,0,0,3.358-.787l0.583-2.637a7.7,7.7,0,0,1-2.913.583,1.848,1.848,0,0,1-2.125-2.055,34.483,34.483,0,0,1,.822-5.957l5.278-24.891h-3.187Q329.487,284.809,329.2,286.419Zm11.771-37.491a2.571,2.571,0,0,0,.788-1.883,2.3,2.3,0,0,0-.805-1.849,2.8,2.8,0,0,0-1.868-.685,2.616,2.616,0,0,0-1.816.719,2.348,2.348,0,0,0-.788,1.815,2.565,2.565,0,0,0,.771,1.917,2.534,2.534,0,0,0,1.833.753A2.574,2.574,0,0,0,340.967,248.928Zm21.421,42.506a20.1,20.1,0,0,0,6.648-8.405,28.742,28.742,0,0,0,2.4-11.846q0-6.231-3.187-9.861t-9.013-3.629a15.766,15.766,0,0,0-9.321,3.013,20.557,20.557,0,0,0-6.734,8.422,27.872,27.872,0,0,0-2.484,11.778q0,6.369,3.255,9.963t9.013,3.595A15.865,15.865,0,0,0,362.388,291.434ZM346.47,288.7q-2.486-2.892-2.485-8.063a25.689,25.689,0,0,1,1.988-10.22,17.367,17.367,0,0,1,5.449-7.241,12.138,12.138,0,0,1,7.436-2.6,8.61,8.61,0,0,1,6.854,2.79q2.433,2.792,2.433,8.166a25.77,25.77,0,0,1-1.988,10.254A17.363,17.363,0,0,1,360.743,289a12.14,12.14,0,0,1-7.471,2.585A8.494,8.494,0,0,1,346.47,288.7Zm32.335-20.388-5.414,25.3h3.187l3.5-16.332a21.636,21.636,0,0,1,3.6-8.08,24.877,24.877,0,0,1,6.185-6.232,11.313,11.313,0,0,1,6.151-2.4q6.031,0,6.032,7.087a42.118,42.118,0,0,1-.926,5.821l-4.146,20.132h3.187q4.626-22.084,4.9-23.727a17.319,17.319,0,0,0,.274-2.774q0-4.827-2.107-7.121t-6.6-2.294q-7.984,0-14.667,10.819h-0.137l1.679-9.963h-3.153a87.348,87.348,0,0,1-1.542,9.758h0Zm44.487,36.942h3.153l9.355-43.824h9.253l0.651-2.876h-9.287l1.2-5.752q1.851-9.039,8.362-9.039a6.628,6.628,0,0,1,3.632.753l0.651-3.081a13.818,13.818,0,0,0-3.94-.548,10.629,10.629,0,0,0-7.505,2.756q-2.982,2.757-4.147,8.3l-1.4,6.608h-6.305l-0.651,2.876h6.339Zm39.446-13.815a20.1,20.1,0,0,0,6.648-8.405,28.742,28.742,0,0,0,2.4-11.846q0-6.231-3.187-9.861t-9.013-3.629a15.766,15.766,0,0,0-9.321,3.013,20.566,20.566,0,0,0-6.734,8.422,27.887,27.887,0,0,0-2.484,11.778q0,6.369,3.255,9.963t9.013,3.595A15.865,15.865,0,0,0,462.738,291.434ZM446.82,288.7q-2.485-2.892-2.484-8.063a25.689,25.689,0,0,1,1.987-10.22,17.367,17.367,0,0,1,5.449-7.241,12.138,12.138,0,0,1,7.436-2.6,8.608,8.608,0,0,1,6.854,2.79q2.433,2.792,2.433,8.166a25.787,25.787,0,0,1-1.987,10.254A17.373,17.373,0,0,1,461.093,289a12.139,12.139,0,0,1-7.47,2.585A8.5,8.5,0,0,1,446.82,288.7Zm31.856-17.855-4.866,22.769H477l3.289-15.51a31.7,31.7,0,0,1,5.364-12.6q3.717-4.931,7.556-4.93a6.555,6.555,0,0,1,3.632,1.2h0.137l0.583-3.218a8.377,8.377,0,0,0-3.735-.856,9.172,9.172,0,0,0-6.152,2.242,21.914,21.914,0,0,0-4.951,6.9h-0.138l1.268-8.285H480.7a93.381,93.381,0,0,1-2.022,12.291h0Zm36.4,7.122q13.3-.206,19.242-3.013t5.945-8.834a7.545,7.545,0,0,0-2.758-6.163,11.08,11.08,0,0,0-7.248-2.259,15.958,15.958,0,0,0-9.133,2.927,20.69,20.69,0,0,0-6.854,8.012,24.555,24.555,0,0,0-2.553,11.179q0,6.95,3.5,10.8t9.835,3.851A19.555,19.555,0,0,0,534.539,292l0.617-3.287a20.289,20.289,0,0,1-9.629,2.876,9.9,9.9,0,0,1-7.762-3.064q-2.758-3.063-2.759-8.44Zm5.637-13.336a12.219,12.219,0,0,1,9.03-4.057q7.23,0,7.231,5.889,0,4.588-5.244,6.608t-16.209,2.02A20.324,20.324,0,0,1,520.712,264.626Zm29.011,28.983H552.6l21.007-35.06h-3.6l-17.032,29.068-1.062,2.26h-0.138a20.711,20.711,0,0,0-.342-3.63l-4.592-27.7h-3.221Zm24.3-15.647q13.3-.206,19.242-3.013t5.945-8.834a7.545,7.545,0,0,0-2.758-6.163,11.08,11.08,0,0,0-7.248-2.259,15.958,15.958,0,0,0-9.133,2.927,20.69,20.69,0,0,0-6.854,8.012,24.555,24.555,0,0,0-2.553,11.179q0,6.95,3.5,10.8T584,294.464A19.555,19.555,0,0,0,593.487,292l0.617-3.287a20.289,20.289,0,0,1-9.629,2.876,9.9,9.9,0,0,1-7.762-3.064q-2.758-3.063-2.759-8.44Zm5.637-13.336a12.219,12.219,0,0,1,9.03-4.057q7.23,0,7.23,5.889,0,4.588-5.243,6.608t-16.209,2.02A20.324,20.324,0,0,1,579.66,264.626ZM604.7,270.84l-4.866,22.769h3.187l3.29-15.51a31.7,31.7,0,0,1,5.363-12.6q3.717-4.931,7.556-4.93a6.558,6.558,0,0,1,3.633,1.2H623l0.582-3.218a8.374,8.374,0,0,0-3.735-.856,9.169,9.169,0,0,0-6.151,2.242,21.9,21.9,0,0,0-4.952,6.9H608.6l1.268-8.285h-3.153A93.213,93.213,0,0,1,604.7,270.84h0Zm9.735,38.689a6.716,6.716,0,0,0,3.016.548,9.954,9.954,0,0,0,6.425-2.157q2.69-2.157,6.22-7.806l25.873-41.565h-3.7l-18.54,30.4-0.342.582h-0.137l-0.274-2.6-5-28.383h-3.221l6.168,34.58-4.626,7.361A17.888,17.888,0,0,1,622,305.523a7.381,7.381,0,0,1-4.352,1.4,4.895,4.895,0,0,1-2.5-.616Zm59.254-18.095a20.1,20.1,0,0,0,6.648-8.405,28.742,28.742,0,0,0,2.4-11.846q0-6.231-3.187-9.861t-9.013-3.629a15.764,15.764,0,0,0-9.321,3.013,20.557,20.557,0,0,0-6.734,8.422,27.872,27.872,0,0,0-2.484,11.778q0,6.369,3.255,9.963t9.013,3.595A15.865,15.865,0,0,0,673.685,291.434ZM657.767,288.7q-2.486-2.892-2.485-8.063a25.689,25.689,0,0,1,1.988-10.22,17.367,17.367,0,0,1,5.449-7.241,12.138,12.138,0,0,1,7.436-2.6,8.611,8.611,0,0,1,6.854,2.79q2.433,2.792,2.433,8.166a25.77,25.77,0,0,1-1.988,10.254A17.363,17.363,0,0,1,672.04,289a12.14,12.14,0,0,1-7.471,2.585A8.494,8.494,0,0,1,657.767,288.7ZM690.1,268.307l-5.414,25.3h3.187l3.5-16.332a21.65,21.65,0,0,1,3.6-8.08,24.9,24.9,0,0,1,6.186-6.232,11.313,11.313,0,0,1,6.151-2.4q6.032,0,6.032,7.087a42.118,42.118,0,0,1-.926,5.821l-4.146,20.132h3.187q4.626-22.084,4.9-23.727a17.319,17.319,0,0,0,.274-2.774q0-4.827-2.107-7.121t-6.6-2.294q-7.985,0-14.667,10.819h-0.137l1.679-9.963h-3.153a87.348,87.348,0,0,1-1.542,9.758h0Zm33.826,9.655q13.3-.206,19.242-3.013t5.946-8.834a7.543,7.543,0,0,0-2.759-6.163,11.078,11.078,0,0,0-7.248-2.259,15.955,15.955,0,0,0-9.132,2.927,20.69,20.69,0,0,0-6.854,8.012,24.555,24.555,0,0,0-2.553,11.179q0,6.95,3.5,10.8t9.836,3.851A19.557,19.557,0,0,0,743.393,292l0.617-3.287a20.289,20.289,0,0,1-9.63,2.876,9.907,9.907,0,0,1-7.762-3.064q-2.759-3.063-2.758-8.44Zm5.638-13.336a12.217,12.217,0,0,1,9.029-4.057q7.232,0,7.231,5.889,0,4.588-5.243,6.608t-16.209,2.02A20.317,20.317,0,0,1,729.566,264.626Z"/>
  <path id="αlphα" class="cls-2" d="M272.361,127.215a40.439,40.439,0,0,1-7.987,12.887,14.527,14.527,0,0,1-17.38,2.956,15.5,15.5,0,0,1-5.228-4.65,22.556,22.556,0,0,1-3.333-7.175,34.1,34.1,0,0,1-1.178-9.242,38.739,38.739,0,0,1,1.322-10.39,26.12,26.12,0,0,1,3.792-8.237,17.9,17.9,0,0,1,6.033-5.425,16.344,16.344,0,0,1,7.986-1.952,12.464,12.464,0,0,1,6.78,1.808,17.174,17.174,0,0,1,5.056,5.052,34.849,34.849,0,0,1,3.792,7.749,101.456,101.456,0,0,1,2.93,9.9Zm18.989,22.99q1.062-.2,2.384-0.545v-6.487q-0.633.173-1.293,0.287a8.18,8.18,0,0,1-1.407.115,4.053,4.053,0,0,1-2.471-.8,8.223,8.223,0,0,1-2.183-3.3,49.048,49.048,0,0,1-2.27-7.06q-1.178-4.565-2.729-12.026L292.7,91.05h-7.929l-6.32,18.714h-0.173A54.687,54.687,0,0,0,275,102.043a27.1,27.1,0,0,0-4.568-6.4,20.347,20.347,0,0,0-6.177-4.363,18.961,18.961,0,0,0-7.986-1.607,25.155,25.155,0,0,0-11.232,2.44,23.773,23.773,0,0,0-8.36,6.774,31.172,31.172,0,0,0-5.2,10.361,45.78,45.78,0,0,0-1.81,13.2,39.2,39.2,0,0,0,1.638,11.653,27.415,27.415,0,0,0,4.654,9.07,21.447,21.447,0,0,0,7.268,5.913,20.8,20.8,0,0,0,9.422,2.123,22.808,22.808,0,0,0,7.412-1.176,20.69,20.69,0,0,0,6.435-3.617,29.477,29.477,0,0,0,5.573-6.2,55.7,55.7,0,0,0,4.884-8.927h0.23q1.033,4.881,2.154,8.5a29.909,29.909,0,0,0,2.471,5.97,10.615,10.615,0,0,0,2.988,3.5,6.391,6.391,0,0,0,3.763,1.148A15.575,15.575,0,0,0,291.35,150.205Zm16.523-.373V62.808h-7.355v87.024h7.355Zm21.837-9.472q6.147,10.849,18.558,10.849a25.024,25.024,0,0,0,11.06-2.382,24,24,0,0,0,8.36-6.687,30.671,30.671,0,0,0,5.286-10.3,45.243,45.243,0,0,0,1.838-13.289,40.843,40.843,0,0,0-1.637-12,26.158,26.158,0,0,0-4.711-9.069,20.89,20.89,0,0,0-7.527-5.769,25.565,25.565,0,0,0-22.465,1.206,23.365,23.365,0,0,0-8.762,9.386h-0.23V91.05h-7.354v85.819h7.354V140.36h0.23Zm-0.23-22.789a25.064,25.064,0,0,1,1.379-8.352,20.471,20.471,0,0,1,3.965-6.86,18.652,18.652,0,0,1,6.262-4.621,19.561,19.561,0,0,1,8.274-1.693,17.175,17.175,0,0,1,7.383,1.55,15.551,15.551,0,0,1,5.63,4.478,21.124,21.124,0,0,1,3.591,7.089,32.071,32.071,0,0,1,1.264,9.328,40.881,40.881,0,0,1-1.35,10.907,25.723,25.723,0,0,1-3.849,8.324,17.429,17.429,0,0,1-6.062,5.309,16.936,16.936,0,0,1-7.986,1.866,18.084,18.084,0,0,1-7.555-1.55,17.481,17.481,0,0,1-5.832-4.219,19.555,19.555,0,0,1-3.764-6.2,20.947,20.947,0,0,1-1.35-7.548v-7.807Zm102.505,32.261V113.5q0-11.766-4.941-17.795t-14.766-6.027q-12.872,0-19.765,11.538h-0.23v-38.4h-7.354v87.024h7.354V116.94a25.054,25.054,0,0,1,1.437-8.755,20.34,20.34,0,0,1,3.849-6.572,16.51,16.51,0,0,1,12.411-5.568q7.525,0,11.089,4.678t3.562,14.552v34.557h7.354Zm51.37-22.617a40.439,40.439,0,0,1-7.987,12.887,14.527,14.527,0,0,1-17.38,2.956,15.5,15.5,0,0,1-5.228-4.65,22.556,22.556,0,0,1-3.333-7.175,34.1,34.1,0,0,1-1.177-9.242,38.74,38.74,0,0,1,1.321-10.39,26.12,26.12,0,0,1,3.792-8.237,17.9,17.9,0,0,1,6.033-5.425,16.344,16.344,0,0,1,7.986-1.952,12.464,12.464,0,0,1,6.78,1.808,17.174,17.174,0,0,1,5.056,5.052,34.849,34.849,0,0,1,3.792,7.749,101.18,101.18,0,0,1,2.93,9.9Zm18.989,22.99q1.062-.2,2.384-0.545v-6.487q-0.633.173-1.293,0.287a8.171,8.171,0,0,1-1.407.115,4.053,4.053,0,0,1-2.471-.8,8.223,8.223,0,0,1-2.183-3.3,49.048,49.048,0,0,1-2.27-7.06q-1.177-4.565-2.729-12.026L503.694,91.05h-7.929l-6.32,18.714h-0.172A54.807,54.807,0,0,0,486,102.043a27.076,27.076,0,0,0-4.568-6.4,20.347,20.347,0,0,0-6.177-4.363,18.961,18.961,0,0,0-7.986-1.607,25.155,25.155,0,0,0-11.232,2.44,23.782,23.782,0,0,0-8.36,6.774,31.172,31.172,0,0,0-5.2,10.361,45.78,45.78,0,0,0-1.81,13.2A39.2,39.2,0,0,0,442.3,134.1a27.434,27.434,0,0,0,4.654,9.07,21.447,21.447,0,0,0,7.268,5.913,20.8,20.8,0,0,0,9.423,2.123,22.806,22.806,0,0,0,7.411-1.176,20.69,20.69,0,0,0,6.435-3.617,29.477,29.477,0,0,0,5.573-6.2,55.7,55.7,0,0,0,4.884-8.927h0.23q1.034,4.881,2.154,8.5a29.909,29.909,0,0,0,2.471,5.97,10.626,10.626,0,0,0,2.988,3.5,6.393,6.393,0,0,0,3.763,1.148A15.575,15.575,0,0,0,502.344,150.205Z"/>
  <path id="Tab" class="cls-1" d="M560.53,74.518v-7H505.373v7H529.1v75.314h7.642V74.518H560.53Zm36.431,75.314V111.6q0-10.906-5.027-16.418t-14.852-5.511a34.089,34.089,0,0,0-5.315.431,40.4,40.4,0,0,0-5.314,1.206,38.371,38.371,0,0,0-4.913,1.837,24.746,24.746,0,0,0-4.165,2.382v8.036q8.79-7.519,19.075-7.519,13.156,0,13.157,16.934l-17.868,2.583q-10,1.436-14.939,6.171t-4.941,12.715a17.574,17.574,0,0,0,1.293,6.831,15.016,15.016,0,0,0,3.677,5.309,16.459,16.459,0,0,0,5.8,3.416,22.943,22.943,0,0,0,7.67,1.205,20.793,20.793,0,0,0,11.233-3.1,21.592,21.592,0,0,0,7.842-8.726h0.23v10.448h7.354Zm-7.354-30.654v5.8a22.984,22.984,0,0,1-1.35,7.979,19.184,19.184,0,0,1-3.735,6.315,16.964,16.964,0,0,1-12.841,5.625,15.311,15.311,0,0,1-5.142-.8,10.944,10.944,0,0,1-3.85-2.267,9.77,9.77,0,0,1-2.413-3.473,11.263,11.263,0,0,1-.833-4.363,14.329,14.329,0,0,1,.862-5.309,8.663,8.663,0,0,1,2.7-3.617,13.944,13.944,0,0,1,4.654-2.325,46.1,46.1,0,0,1,6.78-1.435Zm27.928,21.182q6.09,10.849,18.558,10.849a24.891,24.891,0,0,0,11-2.382,23.994,23.994,0,0,0,8.359-6.687,31.049,31.049,0,0,0,5.315-10.3,44.6,44.6,0,0,0,1.867-13.289A40.411,40.411,0,0,0,661,106.664a26.788,26.788,0,0,0-4.711-9.127,20.619,20.619,0,0,0-7.527-5.826A25.565,25.565,0,0,0,626.3,92.916a23.365,23.365,0,0,0-8.762,9.386H617.3V62.808h-7.354v87.024H617.3V140.36h0.23Zm-0.23-22.789a25.064,25.064,0,0,1,1.379-8.352,20.486,20.486,0,0,1,3.964-6.86,18.656,18.656,0,0,1,6.263-4.621,19.561,19.561,0,0,1,8.274-1.693,17.175,17.175,0,0,1,7.383,1.55,15.551,15.551,0,0,1,5.63,4.478,21.124,21.124,0,0,1,3.591,7.089,32.071,32.071,0,0,1,1.264,9.328A40.881,40.881,0,0,1,653.7,129.4a25.723,25.723,0,0,1-3.849,8.324,17.429,17.429,0,0,1-6.062,5.309,16.936,16.936,0,0,1-7.986,1.866,18.092,18.092,0,0,1-7.556-1.55,17.477,17.477,0,0,1-5.831-4.219,19.555,19.555,0,0,1-3.764-6.2,20.947,20.947,0,0,1-1.35-7.548v-7.807Z"/>
  <path id="Note" class="cls-2" d="M169.275,36.386V142.305c-2.905-3.491-7.753-5.425-14.038-5.425-14.459,0-27.1,11.607-27.1,24.378,0,9.766,6.728,14.635,17.088,14.635,15.636,0,27.031-11.977,27.1-24.3V65.77c15.4,7.886,26.484,15.751,32.457,27.168C210.83,104.5,207,120.5,190.548,135.122c-0.421,1.521.258,2.306,1.447,2.254,29.206-24.517,24.482-55.245-2.072-76.383-8.654-6.888-14.95-16.1-17.6-24.608h-3.05Z"/>
</svg>
